<?xml version="1.0" encoding="UTF-8"?>
<svg width="38px" height="34px" viewBox="0 0 38 34" version="1.1" xmlns="http://www.w3.org/2000/svg" xmlns:xlink="http://www.w3.org/1999/xlink">
    <!-- Generator: Sketch 51.1 (57501) - http://www.bohemiancoding.com/sketch -->
    <title>Group 3</title>
    <desc>Created with Sketch.</desc>
    <defs>
        <path d="M11,4.91666667 C12.0633333,4.91666667 12.925,5.7 12.925,6.66666667 C12.925,7.63333333 12.0633333,8.41666667 11,8.41666667 C9.93666667,8.41666667 9.075,7.63333333 9.075,6.66666667 C9.075,5.7 9.93666667,4.91666667 11,4.91666667 Z M11,12.4166667 C13.7225,12.4166667 16.5916667,13.6333333 16.5916667,14.1666667 L16.5916667,15.0833333 L5.40833333,15.0833333 L5.40833333,14.1666667 C5.40833333,13.6333333 8.2775,12.4166667 11,12.4166667 Z M11,3.33333333 C8.97416667,3.33333333 7.33333333,4.825 7.33333333,6.66666667 C7.33333333,8.50833333 8.97416667,10 11,10 C13.0258333,10 14.6666667,8.50833333 14.6666667,6.66666667 C14.6666667,4.825 13.0258333,3.33333333 11,3.33333333 Z M11,10.8333333 C8.5525,10.8333333 3.66666667,11.95 3.66666667,14.1666667 L3.66666667,16.6666667 L18.3333333,16.6666667 L18.3333333,14.1666667 C18.3333333,11.95 13.4475,10.8333333 11,10.8333333 Z" id="path-1"></path>
        <path d="M11,4.91666667 C12.0633333,4.91666667 12.925,5.7 12.925,6.66666667 C12.925,7.63333333 12.0633333,8.41666667 11,8.41666667 C9.93666667,8.41666667 9.075,7.63333333 9.075,6.66666667 C9.075,5.7 9.93666667,4.91666667 11,4.91666667 Z M11,12.4166667 C13.7225,12.4166667 16.5916667,13.6333333 16.5916667,14.1666667 L16.5916667,15.0833333 L5.40833333,15.0833333 L5.40833333,14.1666667 C5.40833333,13.6333333 8.2775,12.4166667 11,12.4166667 Z M11,3.33333333 C8.97416667,3.33333333 7.33333333,4.825 7.33333333,6.66666667 C7.33333333,8.50833333 8.97416667,10 11,10 C13.0258333,10 14.6666667,8.50833333 14.6666667,6.66666667 C14.6666667,4.825 13.0258333,3.33333333 11,3.33333333 Z M11,10.8333333 C8.5525,10.8333333 3.66666667,11.95 3.66666667,14.1666667 L3.66666667,16.6666667 L18.3333333,16.6666667 L18.3333333,14.1666667 C18.3333333,11.95 13.4475,10.8333333 11,10.8333333 Z" id="path-3"></path>
        <path d="M11,4.91666667 C12.0633333,4.91666667 12.925,5.7 12.925,6.66666667 C12.925,7.63333333 12.0633333,8.41666667 11,8.41666667 C9.93666667,8.41666667 9.075,7.63333333 9.075,6.66666667 C9.075,5.7 9.93666667,4.91666667 11,4.91666667 Z M11,12.4166667 C13.7225,12.4166667 16.5916667,13.6333333 16.5916667,14.1666667 L16.5916667,15.0833333 L5.40833333,15.0833333 L5.40833333,14.1666667 C5.40833333,13.6333333 8.2775,12.4166667 11,12.4166667 Z M11,3.33333333 C8.97416667,3.33333333 7.33333333,4.825 7.33333333,6.66666667 C7.33333333,8.50833333 8.97416667,10 11,10 C13.0258333,10 14.6666667,8.50833333 14.6666667,6.66666667 C14.6666667,4.825 13.0258333,3.33333333 11,3.33333333 Z M11,10.8333333 C8.5525,10.8333333 3.66666667,11.95 3.66666667,14.1666667 L3.66666667,16.6666667 L18.3333333,16.6666667 L18.3333333,14.1666667 C18.3333333,11.95 13.4475,10.8333333 11,10.8333333 Z" id="path-5"></path>
        <path d="M11,4.91666667 C12.0633333,4.91666667 12.925,5.7 12.925,6.66666667 C12.925,7.63333333 12.0633333,8.41666667 11,8.41666667 C9.93666667,8.41666667 9.075,7.63333333 9.075,6.66666667 C9.075,5.7 9.93666667,4.91666667 11,4.91666667 Z M11,12.4166667 C13.7225,12.4166667 16.5916667,13.6333333 16.5916667,14.1666667 L16.5916667,15.0833333 L5.40833333,15.0833333 L5.40833333,14.1666667 C5.40833333,13.6333333 8.2775,12.4166667 11,12.4166667 Z M11,3.33333333 C8.97416667,3.33333333 7.33333333,4.825 7.33333333,6.66666667 C7.33333333,8.50833333 8.97416667,10 11,10 C13.0258333,10 14.6666667,8.50833333 14.6666667,6.66666667 C14.6666667,4.825 13.0258333,3.33333333 11,3.33333333 Z M11,10.8333333 C8.5525,10.8333333 3.66666667,11.95 3.66666667,14.1666667 L3.66666667,16.6666667 L18.3333333,16.6666667 L18.3333333,14.1666667 C18.3333333,11.95 13.4475,10.8333333 11,10.8333333 Z" id="path-7"></path>
    </defs>
    <g id="Portrait" stroke="none" stroke-width="1" fill="none" fill-rule="evenodd">
        <g id="Home" transform="translate(-560.000000, -857.000000)">
            <g id="Group-6" transform="translate(468.000000, 854.000000)">
                <g id="Group-3" transform="translate(89.000000, 0.000000)">
                    <g id="ic/perm_identity">
                        <g id="ic_perm_identity_24px">
                            <mask id="mask-2" fill="white">
                                <use xlink:href="#path-1"></use>
                            </mask>
                            <g id="Shape" fill-rule="nonzero"></g>
                            <g id="c/#FFFFFF/1" mask="url(#mask-2)" fill="#FFFFFF">
                                <rect id="Rectangle" x="0" y="0" width="22" height="20"></rect>
                            </g>
                        </g>
                    </g>
                    <g id="ic/perm_identity" transform="translate(22.500000, 0.000000)">
                        <g id="ic_perm_identity_24px">
                            <mask id="mask-4" fill="white">
                                <use xlink:href="#path-3"></use>
                            </mask>
                            <g id="Shape" fill-rule="nonzero"></g>
                            <g id="c/#FFFFFF/1" mask="url(#mask-4)" fill="#FFFFFF">
                                <rect id="Rectangle" x="0" y="0" width="22" height="20"></rect>
                            </g>
                        </g>
                    </g>
                    <g id="ic/perm_identity" transform="translate(22.500000, 20.000000)">
                        <g id="ic_perm_identity_24px">
                            <mask id="mask-6" fill="white">
                                <use xlink:href="#path-5"></use>
                            </mask>
                            <g id="Shape" fill-rule="nonzero"></g>
                            <g id="c/#FFFFFF/1" mask="url(#mask-6)" fill="#FFFFFF">
                                <rect id="Rectangle" x="0" y="0" width="22" height="20"></rect>
                            </g>
                        </g>
                    </g>
                    <g id="ic/perm_identity" transform="translate(0.000000, 20.000000)">
                        <g id="ic_perm_identity_24px">
                            <mask id="mask-8" fill="white">
                                <use xlink:href="#path-7"></use>
                            </mask>
                            <g id="Shape" fill-rule="nonzero"></g>
                            <g id="c/#FFFFFF/1" mask="url(#mask-8)" fill="#FFFFFF">
                                <rect id="Rectangle" x="0" y="0" width="22" height="20"></rect>
                            </g>
                        </g>
                    </g>
                </g>
            </g>
        </g>
    </g>
</svg>