<?xml version="1.0" encoding="UTF-8"?>
<svg width="27px" height="34px" viewBox="0 0 27 34" version="1.1" xmlns="http://www.w3.org/2000/svg" xmlns:xlink="http://www.w3.org/1999/xlink">
    <!-- Generator: Sketch 51.1 (57501) - http://www.bohemiancoding.com/sketch -->
    <title>Group 9</title>
    <desc>Created with Sketch.</desc>
    <defs>
        <path d="M22.5,3.33333333 C15.24375,3.33333333 9.375,8.55 9.375,15 C9.375,23.75 22.5,36.6666667 22.5,36.6666667 C22.5,36.6666667 35.625,23.75 35.625,15 C35.625,8.55 29.75625,3.33333333 22.5,3.33333333 Z M22.5,19.1666667 C19.9125,19.1666667 17.8125,17.3 17.8125,15 C17.8125,12.7 19.9125,10.8333333 22.5,10.8333333 C25.0875,10.8333333 27.1875,12.7 27.1875,15 C27.1875,17.3 25.0875,19.1666667 22.5,19.1666667 Z" id="path-1"></path>
    </defs>
    <g id="Portrait" stroke="none" stroke-width="1" fill="none" fill-rule="evenodd">
        <g id="Home" transform="translate(-371.000000, -857.000000)">
            <g id="Group-4" transform="translate(272.000000, 854.000000)">
                <g id="Group-9" transform="translate(90.000000, 0.000000)">
                    <g id="ic/location_on">
                        <g id="ic_location_on_24px">
                            <mask id="mask-2" fill="white">
                                <use xlink:href="#path-1"></use>
                            </mask>
                            <g id="Shape" fill-rule="nonzero"></g>
                            <g id="c/#FFFFFF/1" mask="url(#mask-2)" fill="#FFFFFF">
                                <rect id="Rectangle" x="0" y="0" width="45" height="40"></rect>
                            </g>
                        </g>
                    </g>
                </g>
            </g>
        </g>
    </g>
</svg>